<?xml version="1.0" encoding="utf-8"?>
<!-- Generator: Adobe Illustrator 25.2.2, SVG Export Plug-In . SVG Version: 6.00 Build 0)  -->
<svg version="1.1" id="Layer_1" xmlns="http://www.w3.org/2000/svg" xmlns:xlink="http://www.w3.org/1999/xlink" x="0px" y="0px"
	 viewBox="0 0 817.17 604.67" style="enable-background:new 0 0 817.17 604.67;" xml:space="preserve">
<g>
	<path d="M437.5,416c-9.34,0-18.59-2.17-27.75-6.5c-9.17-4.34-17.75-10.67-25.75-19c-11.67-12-21.75-26.41-30.25-43.25
		c-8.5-16.83-15.75-34.16-21.75-52c-6-17.83-10.67-34.16-14-49c-3.34-14.83-5.67-26.25-7-34.25
		c-12.34,23.67-25.09,47.09-38.25,70.25c-13.17,23.17-29.92,45.92-50.25,68.25c-19.34,21-40.5,36.92-63.5,47.75
		s-46.84,16.25-71.5,16.25c-7.67,0-15.5-0.5-23.5-1.5c-22-2.67-38.17-9-48.5-19C5.16,384,0,373.34,0,362c0-12.33,5.5-23.5,16.5-33.5
		c11-10,26.66-15,47-15c6.66,0,13.83,0.67,21.5,2c7.66,1.34,15.66,3.5,24,6.5c3.66,1.34,5.5,2.84,5.5,4.5c0,1.34-1.34,2-4,2
		c-1.67,0-3-0.16-4-0.5c-11-4-20.84-6-29.5-6c-14,0-24.67,4.09-32,12.25c-7.34,8.17-11,17.09-11,26.75c0,9.34,4,18,12,26
		s20.33,12,37,12c21,0,40.33-4.91,58-14.75c17.66-9.83,34.16-23.33,49.5-40.5c15.33-17.16,30-36.66,44-58.5
		c14-21.83,27.66-44.58,41-68.25c22.33-39.66,42.58-75.75,60.75-108.25C354.41,76.25,373.66,48.67,394,26c-9-1-18.17-1.66-27.5-2
		c-9.34-0.33-18.84-0.5-28.5-0.5c-21,0-42.75,1.09-65.25,3.25c-22.5,2.17-44.25,5.59-65.25,10.25c-28.34,6-52.67,14.92-73,26.75
		c-20.34,11.84-36.42,25-48.25,39.5C74.41,117.75,67,132.34,64,147c-1,5.34-1.5,10.5-1.5,15.5c0,17,5.66,30.17,17,39.5
		c11.33,9.34,24.33,14,39,14c9.33,0,18.75-1.91,28.25-5.75c9.5-3.83,18.08-9.91,25.75-18.25c6.33-6.66,11-12.91,14-18.75
		c3-5.83,4.66-10.25,5-13.25c0.33-4.66,1.33-7,3-7c1,0,1.91,0.84,2.75,2.5c0.83,1.67,1.08,3.34,0.75,5c-1.34,7.67-3.67,15.17-7,22.5
		c-3.34,7.34-7.34,13.5-12,18.5c-9.34,9.67-20,16.84-32,21.5c-12,4.67-23.5,7-34.5,7c-13,0-25.25-2.83-36.75-8.5
		C64.25,215.84,55,207.59,48,196.75c-7-10.83-10.5-24.25-10.5-40.25c0-18.66,6.5-37.75,19.5-57.25S89.58,62.5,115.75,47.5
		c26.16-15,58.75-25.33,97.75-31c19.66-2.66,38.75-4.75,57.25-6.25S307.16,8,324.5,8c14,0,27.66,0.5,41,1.5
		c13.33,1,26.5,2.34,39.5,4c8.66-9,14.5-13.5,17.5-13.5c2.33,0,3.5,1.84,3.5,5.5c0,1.34-0.17,3-0.5,5c-0.34,2-0.84,4-1.5,6
		c9,1.34,17.75,2.75,26.25,4.25S466.33,24,473,26c26.33,7.34,45.58,16.92,57.75,28.75C542.91,66.59,549,79.34,549,93
		c0,14.67-2.91,33.77-19.75,44c-16.27,9.88-34.89,23.95-55.5,39C452.43,191.56,422,195.67,390,201c-10.34,1.67-19.42,2.84-27.25,3.5
		c-7.84,0.67-14.59,1.17-20.25,1.5c0.66,3.34,2.16,10.34,4.5,21c2.33,10.67,5.66,23.25,10,37.75c4.33,14.5,9.91,29.75,16.75,45.75
		c6.83,16,15.08,31.17,24.75,45.5c7.66,11.34,15.5,20.67,23.5,28c8,7.34,16.5,11,25.5,11c5.66,0,11.43-1.83,17.75-4.5
		c5.95-2.52,10.22-11.65,19.25-14.5c14.11-4.45,15.25-17.08,21.75-27.25C512.75,338.59,518.33,329,523,320c4.66-9,7.83-15.33,9.5-19
		c2.66-4.66,5.5-7,8.5-7c1,0,1.5,0.67,1.5,2c0,0.67-0.5,2.34-1.5,5c-1.67,3.67-4.17,9.25-7.5,16.75c-3.34,7.5-7.34,15.75-12,24.75
		c-4.67,9-9.67,17.84-15,26.5c-5.34,8.67-10.67,16-16,22c-7.67,8.33-16.25,14.58-25.75,18.75C455.25,413.91,446.16,416,437.5,416z
		 M321.5,192.5c9.66-1.66,20-2.83,31-3.5c11-0.66,21.83-1.66,32.5-3c17.33-2.33,33.66-6.91,49-13.75
		c15.33-6.83,28.91-15.08,40.75-24.75c11.83-9.66,21.08-19.91,27.75-30.75c6.66-10.83,10-21.25,10-31.25
		c0-22.66-15.17-38.33-45.5-47c-6-1.66-13.75-3.33-23.25-5c-9.5-1.66-18.09-3.16-25.75-4.5c-16,27.34-32.42,54.17-49.25,80.5
		C351.91,135.84,336.16,163.5,321.5,192.5z"/>
</g>
<g>
	<path d="M538.17,132.17c1.67,0,3.17,0,4.5,0c1.34,0,2.67,0.17,4,0.5c16,3,24,17.34,24,43c0,20.66-5.16,48.5-15.5,83.5
		c-10.33,35-26,77.16-47,126.5c-6,14-12,29.75-18,47.25s-11.08,35.08-15.25,52.75c-4.16,17.66-6.25,33.66-6.25,48
		c0,10.33,1.34,19.41,4,27.25c2.67,7.83,7.17,13.58,13.5,17.25c7.34,4.66,15.42,8.08,24.25,10.25c8.84,2.16,18.09,3.25,27.75,3.25
		c17.34,0,35.5-3.09,54.5-9.25c19-6.17,37.84-14.75,56.5-25.75c18.67-11,36.34-23.84,53-38.5c16.67-14.67,31.42-30.59,44.25-47.75
		c12.84-17.17,22.59-34.92,29.25-53.25c4.34-12.34,7.59-24,9.75-35c2.17-11,3.25-21.34,3.25-31c0-20-4-36.75-12-50.25
		s-18.41-23.59-31.25-30.25c-12.83-6.67-26.41-10-40.75-10c-14,0-27.91,3.41-41.75,10.25c-13.83,6.83-26.33,15.91-37.5,27.25
		c-11.16,11.33-20.08,23.83-26.75,37.5c-6.66,13.66-10,27.5-10,41.5c0,11.33,2.34,21.25,7,29.75c4.67,8.5,12.5,12.75,23.5,12.75
		c2.34,0,4.75-0.17,7.25-0.5c2.5-0.34,5.09-1,7.75-2c3.34-1,6-1.5,8-1.5c1.67,0,2.5,0.5,2.5,1.5c0,0.66-0.66,1.75-2,3.25
		c-1.33,1.5-3.16,2.75-5.5,3.75c-9.66,4.33-18.66,6.5-27,6.5c-13.66,0-24.33-5.17-32-15.5c-7.66-10.34-11.5-22.84-11.5-37.5
		c0-16,4.59-31.67,13.75-47c9.17-15.34,21.09-29.25,35.75-41.75c14.67-12.5,30.5-22.5,47.5-30s33.34-11.25,49-11.25
		c17.67,0,34.5,4.83,50.5,14.5c16,9.66,29,23.25,39,40.75s15,37.91,15,61.25c0,10.66-1.25,21.83-3.75,33.5
		c-2.5,11.66-6.41,23.66-11.75,36c-11,25.33-26.33,48.5-46,69.5c-19.66,21-41.66,39.08-66,54.25c-24.33,15.16-49.16,26.83-74.5,35
		c-25.33,8.16-49.5,12.25-72.5,12.25c-20.33,0-38.5-3.5-54.5-10.5c-17.66-7.67-30.16-19-37.5-34c-7.33-15-11-31.84-11-50.5
		c0-20.34,3.42-41.92,10.25-64.75c6.84-22.84,15.42-44.59,25.75-65.25c10.67-21.67,20.34-44.25,29-67.75c8.67-23.5,16-45.84,22-67
		c6-21.17,10.34-39.42,13-54.75c0.67-3.67,1.17-7.09,1.5-10.25c0.34-3.16,0.5-6.08,0.5-8.75c0-15.66-5.16-23.5-15.5-23.5
		c-7,0-15.33,2.92-25,8.75c-9.66,5.84-19.75,13.09-30.25,21.75s-20.58,17.75-30.25,27.25c-9.66,9.5-18,18-25,25.5
		s-11.83,12.75-14.5,15.75c-28,32.66-50,65.41-66,98.25c-16,32.83-24,62.41-24,88.75c0,6,0.5,12,1.5,18c1.34,8.66,3.17,14.66,5.5,18
		c2.34,3.33,5,5.33,8,6c3,0.66,6.5,1.33,10.5,2c4.34,0.66,7.59,2,9.75,4c2.17,2,3.25,3.83,3.25,5.5c0,3.33-2.83,5-8.5,5
		c-0.66,0-1.58-0.09-2.75-0.25c-1.16-0.17-2.41-0.42-3.75-0.75c-6.33-1.67-13.33-5.34-21-11c-7.66-5.67-14.33-13.34-20-23
		c-5.66-9.67-8.5-21.84-8.5-36.5c0-13.67,3.17-28.84,9.5-45.5c9.34-24.34,21.5-48.25,36.5-71.75s31.59-45.5,49.75-66
		c18.17-20.5,36.75-38.67,55.75-54.5s37.25-28.25,54.75-37.25S524.5,132.17,538.17,132.17z"/>
</g>
</svg>
